<svg xmlns="http://www.w3.org/2000/svg" id="Layer_4" data-name="Layer 4" viewBox="0 0 261 121.33"><defs><style>.cls-1{fill:#fff;}</style></defs><title>logo</title><path class="cls-1" d="M-341,2344.18q0,6.13-5.76,8.79a9.13,9.13,0,0,1-2.9,1q-1.66,0-5.07-5.1-2.91,4-6.21,7.71,1.48-.18,5.71-1.21a24.84,24.84,0,0,1,5.76-.9,8.82,8.82,0,0,1,5.84,2,6.83,6.83,0,0,1,2.51,5.52,10.55,10.55,0,0,1-4.17,8.4,13.75,13.75,0,0,1-9,3.28,13.61,13.61,0,0,1-8.13-2.88,41.74,41.74,0,0,1-6.29-6.15,50.8,50.8,0,0,1-8.5,6.25,20.93,20.93,0,0,1-10.09,2.78,15.31,15.31,0,0,1-11-4.15,14.06,14.06,0,0,1-4.38-10.69,13.64,13.64,0,0,1,4.28-10.2,14.41,14.41,0,0,1,10.4-4.14q5,0,9.69,4.23a104.23,104.23,0,0,1,7.21,8.19q2,2.46,4.07,4.78.79-.71,2.25-2.22a7.83,7.83,0,0,1-3.83-7q0-2.75,2.8-2.72a5.66,5.66,0,0,0-1.71,3.64,3,3,0,0,0,1.43,2.59,5.13,5.13,0,0,0,3,.84l.82-.05q4.75-5.52,9.88-12.7l.93.29a4.1,4.1,0,0,0-.5,2.09,5.18,5.18,0,0,0,1.5,3.47,4.36,4.36,0,0,0,3.27,1.68,3.7,3.7,0,0,0,3.19-1.77,6.23,6.23,0,0,0,1.08-3.64q0-6.63-9.11-6.63a111.61,111.61,0,0,0-13.95,1.29,111.51,111.51,0,0,1-13.87,1.29,6.77,6.77,0,0,1-3.85-.87q1.05-3.49,1.69-6.23l1,.21a9,9,0,0,0-.26,1.9q0,1.74,3.59,1.74a85.48,85.48,0,0,0,8.79-.87,162.77,162.77,0,0,1,17.48-1.69,13.56,13.56,0,0,1,7.18,1.69A6.85,6.85,0,0,1-341,2344.18Zm-28.39,19.66-5.86-7.17a48.83,48.83,0,0,0-7.11-7.22q-4.22-3.29-8-3.29a9.65,9.65,0,0,0-7.69,3.53,12,12,0,0,0-2.85,8.07,12.66,12.66,0,0,0,4.91,10.12,16.33,16.33,0,0,0,10.78,3.85Q-377.93,2371.73-369.43,2363.85Zm26.59-.68a5.4,5.4,0,0,0-1.74-4.2,6.27,6.27,0,0,0-4.33-1.5,29.13,29.13,0,0,0-6.71,1.16,29.12,29.12,0,0,1-6.71,1.16,7.25,7.25,0,0,1-1.37-.13l-2.67,2.77q8.45,9.51,13.94,9.51a9.72,9.72,0,0,0,6.63-2.46A8,8,0,0,0-342.83,2363.17Z" transform="translate(428.08 -2281.03)"/><path class="cls-1" d="M-317.93,2351.55q-1.43,2.72-4.12,9-3.06,7.18-3.06,8.45c0,.53.29.79.87.79a6.29,6.29,0,0,0,2.11-.53l.34.71a70.81,70.81,0,0,1-7.08,3,40.15,40.15,0,0,1,2.64-9.19q-7.29,9.19-11.49,9.19-1.74,0-1.74-1.9,0-2.51,3.21-8.9t3.21-7.42a.78.78,0,0,0-.9-.87,5.82,5.82,0,0,0-1.51.32l-.21-.79a55.77,55.77,0,0,0,6.58-2.27q-.11,2.88-3.7,9.77t-3.59,8.56q0,1.08,1,1.08,2.51,0,7-5.7a49,49,0,0,0,6.87-12.28A13.56,13.56,0,0,0-317.93,2351.55Z" transform="translate(428.08 -2281.03)"/><path class="cls-1" d="M-296.67,2352.79q0,1.35-3.25,2.69l-.36-.45v-.58q0-1.43-1.56-1.43-2.24,0-5.47,2.48a22.38,22.38,0,0,0-4.36,4.41l.32,0a6.12,6.12,0,0,1,2.75.66,6.83,6.83,0,0,1,2.4,1.56,4.31,4.31,0,0,1,.55,2.64v0a.61.61,0,0,0-.11.24l-.21.71q-.42,1.4-1,3.43a4.09,4.09,0,0,0-.16,1q0,1.56,1.35,1.56t2.72-2.19a12.88,12.88,0,0,0,1.45-3.46,2.81,2.81,0,0,1,.53,1.56q0,2-2.35,4a6.87,6.87,0,0,1-4.36,2.07q-2.51,0-2.51-2.69a10.35,10.35,0,0,1,1-3.5,10.45,10.45,0,0,0,1-3.31q0-3-4.09-3c-.18,0-.43,0-.77.05q-1.77,4.33-4.36,11.14a35.43,35.43,0,0,0-3.59,1.11q1.66-3.49,4.07-9.53,3-7.45,3-9a.88.88,0,0,0-1-1,7,7,0,0,0-1.56.37l-.24-.79a42.31,42.31,0,0,0,6.79-3.2,32.91,32.91,0,0,1-2.32,8.71,25.46,25.46,0,0,1,5.86-5.23,13.64,13.64,0,0,1,7.31-2.43Q-296.67,2351.42-296.67,2352.79Z" transform="translate(428.08 -2281.03)"/><path class="cls-1" d="M-268.73,2352.29q0,.92-3.42,8.19t-3.42,8.93a.61.61,0,0,0,.69.69,4.25,4.25,0,0,0,1.74-.71l.42.69a23.9,23.9,0,0,1-6.65,3.28q.08-3.57,3.23-11.06t3.16-7.3q0-.63-.55-.63-1.43,0-5.12,4.05a36.29,36.29,0,0,0-7.45,13.45,17.89,17.89,0,0,0-3.72,1.48q6.47-16.48,6.47-18.22,0-.76-.71-.77-1.29,0-4.12,3.39a52.73,52.73,0,0,0-8.16,14.3l-3.54,1.3q1.61-3.47,4-9.35,3-7.33,3-8.61c0-.58-.25-.87-.74-.87a4.38,4.38,0,0,0-1.61.48l-.32-.84a42.34,42.34,0,0,0,6.5-3.51,8.36,8.36,0,0,1,.08,1.06q0,2.17-2.75,8.9,7.34-9.37,11.38-9.37,1.19,0,1.19,1.27,0,1.9-2.67,8.45a42.09,42.09,0,0,1,5.49-5.93q4.2-3.79,6.6-3.79A.94.94,0,0,1-268.73,2352.29Z" transform="translate(428.08 -2281.03)"/><path class="cls-1" d="M-250.27,2352.55a4,4,0,0,1-.34,1.29q-1.43-.13-2.46-.13-8.77,0-12.68,9.4a14.41,14.41,0,0,0-1.29,5.36q0,3,2.67,3,3.06,0,6.34-4.7,3.06-4.44,3.06-7.71,0-2-1.48-2-2.12,0-4,4.23a4.14,4.14,0,0,1-.13-.92q0-1.69,2.09-3.49a5.93,5.93,0,0,1,3.75-1.74,2.68,2.68,0,0,1,2.19,1.06,3.63,3.63,0,0,1,.77,2.35q0,4.46-5.36,9.48-5.68,5.31-9.43,5.31a3.18,3.18,0,0,1-2.52-1.11,4,4,0,0,1-1-2.69q0-5.33,4.57-10.38a23.66,23.66,0,0,1,9.56-6.55,13.74,13.74,0,0,1,4.46-1Q-250.27,2351.52-250.27,2352.55Z" transform="translate(428.08 -2281.03)"/><path class="cls-1" d="M-234.5,2356.8q0,6.07-4.86,11.46-3.86,4.25-6.81,4.25-1.61,0-1.61-1.43a2.42,2.42,0,0,1,.34-1.14,4.36,4.36,0,0,0,2.3.87q3.25,0,5.86-4.54a15.36,15.36,0,0,0,2.32-7.6q0-4.28-5.32-4.49-6.76,17-12.63,32.51a20.83,20.83,0,0,1-3.1,1q1.29-2.83,4.15-10.41,2.35-6.31,5.76-15.79a5.09,5.09,0,0,0,3.3-2.95q.21-.45,1.61-4.34l-.69,0a25.8,25.8,0,0,0-3.9.23l-1.41,3.65-.73-.31,2.27-6q.24-.05,5.47-.32l1.64-4.65h.87l-1.59,4.67Q-234.5,2351.47-234.5,2356.8Z" transform="translate(428.08 -2281.03)"/><path class="cls-1" d="M-213.22,2351.55q-1.42,2.72-4.12,9-3.06,7.18-3.06,8.45c0,.53.29.79.87.79a6.27,6.27,0,0,0,2.11-.53l.34.71a71.15,71.15,0,0,1-7.08,3,40.17,40.17,0,0,1,2.64-9.19q-7.29,9.19-11.49,9.19-1.74,0-1.74-1.9,0-2.51,3.21-8.9t3.21-7.42a.78.78,0,0,0-.9-.87,5.83,5.83,0,0,0-1.5.32l-.21-.79a55.53,55.53,0,0,0,6.58-2.27q-.11,2.88-3.7,9.77t-3.59,8.56q0,1.08,1,1.08,2.51,0,7-5.7a49,49,0,0,0,6.87-12.28A13.52,13.52,0,0,0-213.22,2351.55Z" transform="translate(428.08 -2281.03)"/><path class="cls-1" d="M-192.46,2351.1q-.32.76-4.89,9.9-3.86,7.74-3.86,8.61t.71.77a4.41,4.41,0,0,0,2.32-1l.42.71a18.29,18.29,0,0,1-7.58,3.2,22.12,22.12,0,0,1,1.32-4.78,22.92,22.92,0,0,1-4.68,3.2,12.08,12.08,0,0,1-5.36,1.58,1.82,1.82,0,0,1-2.09-2q0-2.32,3.12-5.63.61.05.53,1a5.58,5.58,0,0,0-.85,2.81,1.75,1.75,0,0,0,2,2q3.35,0,6.76-4.4a63.07,63.07,0,0,0,3.59-5.33,13.21,13.21,0,0,0,1.27-5.8q0-3.27-3.06-3.27a6.49,6.49,0,0,0-4.83,2.44,7.5,7.5,0,0,0-2.22,5.06q0,2.82,2.77,2.83,3.33,0,6.07-4.57a6.87,6.87,0,0,1-2.23,4.89,6.7,6.7,0,0,1-4.85,2.32q-3.35,0-3.35-3.67a11.27,11.27,0,0,1,3.09-7.74,9.73,9.73,0,0,1,7.45-3.56q3.35,0,3.67,3.88.42-.87,1.05-2.56A8.07,8.07,0,0,0-192.46,2351.1Z" transform="translate(428.08 -2281.03)"/><path class="cls-1" d="M-300.21,2300v1.56c-12,0-19.56,1.69-20.31,3.75s4.06,6.06,22.19,6.06,24-3,24.56-4.69c.78-2.53-9.69-4.94-20.12-4.94l1.31-1.31c14.69,0,20.75,3.38,20.75,6.13s-7.06,7.31-26.44,7.31-24.12-5.56-24.12-8.25S-316.78,2300-300.21,2300Z" transform="translate(428.08 -2281.03)"/><path class="cls-1" d="M-322.71,2307.59c-.75,0-1.06,7.94,6.75,15s26.69,8.81,36.06,1.19,8.69-15.25,8.13-15.25-.69.56-1.56,3.38-4.94,13-21.94,14c-16.34,1-22.83-7.6-24.8-12.15C-322.4,2308.36-321.78,2307.59-322.71,2307.59Z" transform="translate(428.08 -2281.03)"/><path class="cls-1" d="M-323.61,2313.86c0-1.17-5.77-.32-9.58,1.13-5.21,2-5.29,7.67,2.08,11.21s21.33,6.58,39.4,6,32.44-4.81,33.31-9.62c.78-4.31-2.07-5.59-2.81-5.25s.78.66,1.13,2.78c.23,1.41-.37,5.34-16.12,8.16s-31.75,2.19-45-1.25-15.53-7.42-11.75-9.87S-323.63,2315-323.61,2313.86Z" transform="translate(428.08 -2281.03)"/><path class="cls-1" d="M-263.23,2307.45c-.47.16-.17,1,.63,2s1.79,4.37-3.62,7.71-9.46,4.17-9.92,4.58,1.08,2.08,7.46-.54,9.21-6,9.46-8.67S-262.11,2307.07-263.23,2307.45Z" transform="translate(428.08 -2281.03)"/><path class="cls-1" d="M-266.23,2315.91c.25-.25-.21-1-2.08-1.29s-2.62-.12-2.92.13,1.33.83,2.71,1S-266.57,2316.24-266.23,2315.91Z" transform="translate(428.08 -2281.03)"/><path class="cls-1" d="M-266,2314c.81.29,2.5-2.33,1.46-4s-3.62-1.21-5,.29-.79,2.46-.17,2.46,2.29-2.24,3.38-2.08C-264.82,2310.95-266.57,2313.82-266,2314Z" transform="translate(428.08 -2281.03)"/><path class="cls-1" d="M-277,2330.49c-.35-.89-4.17,1.17-9.25,2.46-4.08,1-18.38,1.14-23.21,0-5.48-1.27-7.85-2.59-7.92-1.65-.08,1.13,5.06,5,19.52,5S-276.32,2332.2-277,2330.49Z" transform="translate(428.08 -2281.03)"/><path class="cls-1" d="M-278.57,2308.57c.72-.76-5-3.42-17.17-3.71s-20.62,1.63-20.21,3c.25.81,8.71-1.92,19.12-1.71C-285.53,2306.38-279.32,2309.36-278.57,2308.57Z" transform="translate(428.08 -2281.03)"/><path class="cls-1" d="M-284,2283s-.92,5-6.67,8.54-7.37,7.38-6.37,11.88c.92-3.92,6.47-5.09,9.71-7.67C-283.69,2292.86-282.65,2286.57-284,2283Z" transform="translate(428.08 -2281.03)"/><path class="cls-1" d="M-278.86,2281s.71,8.42-3.29,15.38C-275.15,2291.74-276.4,2283.53-278.86,2281Z" transform="translate(428.08 -2281.03)"/><path class="cls-1" d="M-238.58,2316.9v6.88c41.38,6.25,69.67,18.87,69.67,33.42,0,20.76-57.61,37.59-128.67,37.59S-426.25,2378-426.25,2357.2c0-14.55,28.29-27.17,69.67-33.42v-6.88c-42.43,7.46-71.5,22.7-71.5,40.3,0,24.94,58.43,45.17,130.5,45.17s130.5-20.22,130.5-45.17C-167.08,2339.6-196.16,2324.36-238.58,2316.9Z" transform="translate(428.08 -2281.03)"/></svg>