<?xml version="1.0" encoding="utf-8"?>
<!-- Generator: Adobe Illustrator 21.1.0, SVG Export Plug-In . SVG Version: 6.00 Build 0)  -->
<svg version="1.1" id="Layer_1" xmlns="http://www.w3.org/2000/svg" xmlns:xlink="http://www.w3.org/1999/xlink" x="0px" y="0px"
	 viewBox="0 0 841.9 1615.7" style="enable-background:new 0 0 841.9 1615.7;" xml:space="preserve">
<style type="text/css">
	.st0{fill-rule:evenodd;clip-rule:evenodd;fill:#353535;}
	.st1{fill:#353535;}
</style>
<g>
	<g>
		<g>
			<g>
				<path class="st0" d="M822.6,1263.4c-0.5-1.7-2.8-4.8-5.9-4.9c-0.7,0-6.4,1.4-4.9,3.9c1,1.5,2.5-1.7,3.9-1.3
					c4.4,1.1,1.9,12.1-2.9,13c-16,3.1-33.5-17-40.7-25.4c-1.5-1.7-6.2-7.2-1.6-4.9c12.3,6.1,42.6,9.4,40.7-10.4
					c-1.1-10.9-13.4-17.4-22.5-16.6c-6.8,0.6-14.8,5.6-10.7,14.6c0.3,0.7,2.3,3,3.6,3.6c1.1,0.5,6.9,1.8,6.8,0c0-0.9-5-0.3-6.8-1.6
					c-5.5-3.9-2.4-15.5,6.2-15.3c7.8,0.1,15.6,8.1,16.6,16.3c1.1,9-2,12.9-9.4,13.3c-21.1,1.4-35.6-12.9-52.1-21.5
					c-12.3-6.4-36.3-11.2-43.9,2.3c-4.3,7.7,0,21.1,9.4,20.2c1-0.1,9.2-5.1,7.2-7.2c-1-1-2.5,2.6-1.8,1.9
					c-4.2,5.4-10.7,4.8-10.9-4.1c-0.2-10.7,10.3-18.4,20.2-17.9c9.5,0.5,20.5,7.1,29,11.7c4.4,2.4,9.5,5,12.4,8.1
					c7.5,8.2,3.4,25.3-5.9,30.6c-1.7,0.9-3.6,1.8-5.5,1.3c-1.7-0.4-6.7-8-1.6-9.4c1.1-0.3,3.8,2.2,4.2,0.3c0.4-1.7-4-2.4-4.6-2.3
					c-1.9,0.3-3.4,3-3.3,6.2c0.3,5.5,6.2,10.6,12.4,9.4c8.7-1.6,12.1-13.4,12-21.5c0-2.1-1.4-5.5,1-3.3c7.6,7,16.2,16.4,25.7,20.5
					C807,1276.6,827.3,1278.1,822.6,1263.4z"/>
			</g>
		</g>
	</g>
	<g>
		<g>
			<g>
				<g>
					<path class="st1" d="M793.5,1264.7l-0.1-0.1c-0.1-0.1-0.2-0.1-0.3-0.1c-0.1,0-0.2-0.1-0.3-0.2l-0.5-0.4c-0.5-0.3-0.9-0.6-1.4-1
						c-0.9-0.7-1.9-1.5-2.7-2.3c-0.2-0.2-0.4-0.4-0.6-0.5c-0.1-0.1-0.3-0.2-0.4-0.3c-0.2-0.3-0.4-0.5-0.6-0.8
						c-0.2-0.2-0.4-0.4-0.6-0.6c-0.5-0.6-1-1.2-1.5-1.8c-0.8-1-1.6-2.1-2.4-3.2c-0.4-0.6-0.9-1.3-1.3-1.9c0,0-0.1-0.2-0.1-0.2
						c0.5,0.3,0.9,0.6,1.4,1c0.8,0.6,1.7,1.1,2.6,1.6c0.5,0.3,1.1,0.6,1.6,0.9c0.3,0.1,0.5,0.3,0.8,0.4c0.2,0.2,0.5,0.3,0.7,0.4
						c0.2,0.1,0.4,0.2,0.6,0.3c0.1,0.1,0.2,0.1,0.3,0.2c0.2,0.1,0.5,0.1,0.7,0.2c0.2,0.1,0.4,0.2,0.6,0.3c0.5,0.2,1.1,0.4,1.6,0.6
						c1,0.4,1.9,0.7,2.9,1c0.6,0.2,1.1,0.3,1.7,0.5c0.9,0.3,1.8,0.9,2.4,1.6c0.3,0.3,0.5,0.7,0.8,1c0.3,0.3,0.4,0.5,0.3,0.8
						c-0.1,0.2-0.1,0.4-0.1,0.6c0,0.3,0,0.5-0.1,0.8c-0.5,1.5-2.6,1.9-4.4,1.5c-0.3-0.1-0.5-0.3-0.8-0.4c-0.2,0-0.4,0-0.6,0
						C793.6,1264.8,793.6,1264.8,793.5,1264.7z"/>
				</g>
			</g>
		</g>
	</g>
	<g>
		<g>
			<g>
				<g>
					<path class="st1" d="M778.5,1278.7C778.5,1278.7,778.5,1278.7,778.5,1278.7c0-0.1,0-0.2,0-0.3c0-0.1,0-0.1,0-0.2l0.1-0.4
						c0.1-0.3,0.2-0.7,0.2-1.1c0.1-0.8,0.2-1.6,0.2-2.4c0-0.2,0-0.4,0-0.6c0-0.1-0.1-0.2-0.1-0.3c0-0.3,0-0.5,0-0.8
						c0-0.2-0.1-0.4-0.1-0.6c-0.1-0.6-0.2-1.2-0.3-1.8c-0.2-1.1-0.5-2.1-0.8-3.2l-0.5-1.9c0,0,0-0.2-0.1-0.2c0.3,0.3,0.6,0.7,1,1.1
						c0.6,0.7,1.2,1.3,1.7,2c0.3,0.4,0.7,0.9,1,1.3c0.2,0.2,0.4,0.4,0.5,0.7c0.1,0.2,0.2,0.5,0.4,0.7c0.1,0.2,0.2,0.4,0.3,0.5
						c0,0.1,0.1,0.2,0.1,0.3c0.1,0.2,0.3,0.4,0.5,0.6c0.1,0.2,0.2,0.4,0.3,0.6c0.3,0.5,0.5,1,0.7,1.6c0.4,1,0.7,2.1,0.9,3.2
						c0.1,0.6,0.2,1.3,0.2,2c0,1.1-0.5,2.2-1.2,2.9c-0.3,0.3-0.7,0.5-1,0.8c-0.3,0.3-0.5,0.4-0.8,0.3c-0.2-0.1-0.4-0.1-0.6-0.1
						c-0.3,0-0.5,0-0.8-0.1c-1.4-0.6-2-2.3-2.1-3.5c0-0.2,0.2-0.4,0.2-0.6c0-0.1-0.1-0.2-0.1-0.4
						C778.4,1278.8,778.4,1278.8,778.5,1278.7z"/>
				</g>
			</g>
		</g>
	</g>
</g>
</svg>
